# xmcd
#
# Track frame offsets:
#	150
#	13041
#	27144
#	45763
#	60268
#	72434
#	81745
#	92462
#
# Disc length: 1394 seconds
#
# Revision: 0
# Processed by: cddbd v1.5.1PL0 Copyright (c) Steve Scherf et al.
# Submitted via: dBpowerAMP V4.0
#
DISCID=57057008
DTITLE=Malenic - Waiting For My Best Song
DYEAR=1900
DGENRE=Blues
TTITLE0=Without You
TTITLE1=Youre Gonna Be Alright
TTITLE2=Intivame a Salir
TTITLE3=Anymore
TTITLE4=Sea Of Love
TTITLE5=Beautiful Girl
TTITLE6=I Need Somebody To Love
TTITLE7=I Never Wanted To Be Cruel
EXTD=
EXTT0=
EXTT1=
EXTT2=
EXTT3=
EXTT4=
EXTT5=
EXTT6=
EXTT7=
PLAYORDER=
